<svg class="svg-icon" style="width: 1em; height: 1em;vertical-align: middle;fill: white;overflow: hidden;" viewBox="0 0 1024 1024" version="1.1" xmlns="http://www.w3.org/2000/svg"><path d="M512 341.333333l-56.746667 3.84C418.56 301.653333 315.733333 192 213.333333 192c0 0-84.053333 126.293333-1.706666 294.826667-23.466667 35.413333-37.973333 53.76-40.96 96l-82.346667 12.373333 8.96 41.813333 75.093333-11.093333 5.973334 30.293333-66.986667 40.106667 20.053333 37.973333 61.866667-37.973333C242.346667 800.426667 366.506667 853.333333 512 853.333333s269.653333-52.906667 318.72-157.013333l61.866667 37.973333 20.053333-37.973333-66.986667-40.106667 5.973334-30.293333 75.093333 11.093333 8.96-41.813333-82.346667-12.373333c-2.986667-42.24-17.493333-60.586667-40.96-96C894.72 318.293333 810.666667 192 810.666667 192c-102.4 0-205.226667 109.653333-241.92 153.173333L512 341.333333m-128 128a42.666667 42.666667 0 0 1 42.666667 42.666667 42.666667 42.666667 0 0 1-42.666667 42.666667 42.666667 42.666667 0 0 1-42.666667-42.666667 42.666667 42.666667 0 0 1 42.666667-42.666667m256 0a42.666667 42.666667 0 0 1 42.666667 42.666667 42.666667 42.666667 0 0 1-42.666667 42.666667 42.666667 42.666667 0 0 1-42.666667-42.666667 42.666667 42.666667 0 0 1 42.666667-42.666667m-170.666667 128h85.333334l-29.866667 59.306667c8.533333 27.306667 32.426667 47.36 61.866667 47.36a64 64 0 0 0 64-64h21.333333a85.333333 85.333333 0 0 1-85.333333 85.333333c-32 0-59.733333-17.493333-74.666667-42.666666-14.933333 25.173333-42.666667 42.666667-74.666667 42.666666a85.333333 85.333333 0 0 1-85.333333-85.333333h21.333333a64 64 0 0 0 64 64c29.44 0 53.333333-20.053333 61.866667-47.36L469.333333 597.333333z" fill="" /></svg>